<?xml version="1.0" standalone="no"?><!DOCTYPE svg PUBLIC "-//W3C//DTD SVG 1.1//EN" "http://www.w3.org/Graphics/SVG/1.1/DTD/svg11.dtd"><svg t="1765872003838" class="icon" viewBox="0 0 1024 1024" version="1.1" xmlns="http://www.w3.org/2000/svg" p-id="8990" xmlns:xlink="http://www.w3.org/1999/xlink" width="200" height="200"><path d="M953.92 421.92l-374.4-307.2a100.8 100.8 0 0 0-118.4 0l-377.6 310.4a25.76 25.76 0 0 0-9.6 35.2A28 28 0 0 0 102.72 480h32v364.8a80 80 0 0 0 83.2 83.2h204.8a30.24 30.24 0 0 0 32-32v-147.2c0-22.4 35.2-44.8 64-44.8s67.2 22.4 67.2 44.8V896a30.24 30.24 0 0 0 32 32h208c48 0 80-32 80-83.2V480h32a30.72 30.72 0 0 0 28.8-22.4 32 32 0 0 0-12.8-35.68z" p-id="8991"></path></svg>