<?xml version="1.0" standalone="no"?><!DOCTYPE svg PUBLIC "-//W3C//DTD SVG 1.1//EN" "http://www.w3.org/Graphics/SVG/1.1/DTD/svg11.dtd"><svg t="1765872031463" class="icon" viewBox="0 0 1024 1024" version="1.1" xmlns="http://www.w3.org/2000/svg" p-id="10972" xmlns:xlink="http://www.w3.org/1999/xlink" width="200" height="200"><path d="M509.05088 47.59552C341.1968 48.66048 204.96384 195.05152 204.96384 374.82496c0 15.19616 0.98304 30.39232 2.94912 45.4656a188.33408 188.33408 0 0 0-9.70752-0.28672C88.92416 419.96288 0 514.70336 0 631.15264c0 116.44928 88.8832 211.1488 198.2464 211.1488h279.552v-228.9664L379.2896 711.84384a29.9008 29.9008 0 1 1-42.31168-42.31168l149.504-149.504a28.99968 28.99968 0 0 1 4.58752-3.72736c0.73728-0.49152 1.51552-0.8192 2.29376-1.2288 0.94208-0.53248 1.8432-1.10592 2.8672-1.55648 0.98304-0.4096 2.048-0.65536 3.03104-0.94208 0.8192-0.24576 1.6384-0.57344 2.53952-0.73728a30.18752 30.18752 0 0 1 11.71456 0c0.90112 0.16384 1.67936 0.49152 2.53952 0.73728 1.024 0.28672 2.048 0.53248 3.072 0.94208 0.98304 0.4096 1.92512 1.024 2.8672 1.51552 0.73728 0.4096 1.51552 0.77824 2.2528 1.2288 1.6384 1.10592 3.19488 2.37568 4.58752 3.76832l149.504 149.504a29.9008 29.9008 0 0 1 0 42.31168 29.9008 29.9008 0 0 1-42.31168 0l-98.42688-98.42688v228.9664h257.51552a29.81888 29.81888 0 0 0 5.12-0.49152c123.53536-7.41376 219.7504-115.712 219.7504-248.25856 0-126.73024-89.2928-231.66976-204.30848-246.82496-13.27104-166.7072-143.93344-298.14784-302.98112-299.17184h-3.6864z" fill="#16D1CF" p-id="10973"></path></svg>