<?xml version="1.0" standalone="no"?><!DOCTYPE svg PUBLIC "-//W3C//DTD SVG 1.1//EN" "http://www.w3.org/Graphics/SVG/1.1/DTD/svg11.dtd"><svg t="1765871971942" class="icon" viewBox="0 0 1024 1024" version="1.1" xmlns="http://www.w3.org/2000/svg" p-id="7110" xmlns:xlink="http://www.w3.org/1999/xlink" width="200" height="200"><path d="M493.302004 538.209524c115.370667 0 221.013333 36.571429 272.627809 68.87619 135.996952 81.67619 228.303238 209.67619 257.462857 365.714286 2.413714 14.628571-2.438095 26.819048-9.75238 36.571429-7.265524 9.752381-19.407238 14.628571-31.548953 14.628571H42.156861c-12.141714 0-24.283429-4.87619-31.573333-14.628571-9.703619-9.752381-12.141714-24.380952-9.703619-36.571429 46.153143-238.933333 240.444952-416.914286 473.6-433.980952 6.070857-0.609524 12.751238-0.609524 18.822095-0.609524zM511.514575 0c140.873143 0 255.024762 114.590476 255.024762 256S652.387718 512 511.514575 512c-140.873143 0-255.024762-114.590476-255.024762-256S370.641432 0 511.514575 0z" fill="#0D8EEB" p-id="7111"></path></svg>